<svg width="65" height="12" viewBox="0 0 65 12" fill="none" xmlns="http://www.w3.org/2000/svg">
<path fillRule="evenodd" clipRule="evenodd" d="M10.1137 2.625L7.52216 3.7737L5.064 4.8198L2.62469 3.76297L0 2.62883V9.8121L5.06325 12L10.1122 9.8121V7.53994L10.125 6.25031L8.35185 7.02761L8.34431 8.30194L5.064 9.72097L1.77692 8.31341V5.73724L5.05875 7.15091L9.61181 5.18051L10.1137 4.9653V2.625Z" fill="#2C40C0"/>
<path d="M0 2.79382L5.01165 0.643677L10.0091 2.79006L7.44439 3.91853L5.01165 2.88861L2.59755 3.90803L0 2.79382Z" fill="#73B922"/>
<path fillRule="evenodd" clipRule="evenodd" d="M50.7668 9.99281H52.6414V2.84187H50.7668V9.99281ZM50.9584 0.277578C50.7735 0.46263 50.6809 0.700556 50.6809 0.99135C50.6809 1.27774 50.7712 1.51567 50.9516 1.70512C51.1365 1.89458 51.3851 1.98931 51.6975 1.98931C52.0099 1.98931 52.2562 1.89458 52.4366 1.70512C52.6215 1.51567 52.7141 1.27774 52.7141 0.99135C52.7141 0.700556 52.6215 0.46263 52.4366 0.277578C52.2521 0.092526 52.0054 0 51.6975 0C51.3896 0 51.1432 0.092526 50.9584 0.277578ZM15.8052 9.26584C16.3421 9.83861 17.0901 10.125 18.0494 10.125C18.5598 10.125 19.0328 10.0281 19.4684 9.83419C19.9041 9.63592 20.2363 9.37819 20.4651 9.06094L19.7325 7.9308C19.3144 8.35819 18.793 8.5719 18.1682 8.5719C17.7369 8.5719 17.4179 8.4507 17.2111 8.20837C17.0043 7.96166 16.8877 7.57391 16.8613 7.0452H20.5773V6.12656C20.5685 4.9986 20.3375 4.14825 19.8843 3.57547C19.431 2.99829 18.7556 2.70969 17.8579 2.70969C16.9383 2.70969 16.2321 3.01591 15.7392 3.62835C15.2464 4.24076 15 5.11095 15 6.23891V6.80726C15 7.87354 15.2684 8.69306 15.8052 9.26584ZM18.7424 5.73664H16.8745C16.9009 5.22113 16.9867 4.84661 17.1319 4.6131C17.2815 4.37959 17.5191 4.26281 17.8447 4.26281C18.1704 4.26281 18.3992 4.37295 18.5312 4.59326C18.6632 4.81358 18.7336 5.13739 18.7424 5.56477V5.73664ZM29.545 7.51444C29.5362 8.2194 29.2612 8.5719 28.7199 8.5719C28.4779 8.5719 28.2909 8.51902 28.1589 8.41327C28.0269 8.3031 27.9323 8.13349 27.8751 7.90436C27.8179 7.67085 27.7893 7.2633 27.7893 6.68171V5.9547C27.7981 5.28941 27.8729 4.84219 28.0137 4.6131C28.1545 4.37959 28.3877 4.26281 28.7133 4.26281C29.0082 4.26281 29.2194 4.37077 29.347 4.58666C29.4746 4.80255 29.5406 5.11095 29.545 5.5119H31.3007C31.2919 4.61749 31.0608 3.92794 30.6076 3.4433C30.1544 2.95423 29.534 2.70969 28.7463 2.70969C27.8135 2.70969 27.1073 3.00489 26.6276 3.5953C26.1524 4.18571 25.9148 5.04266 25.9148 6.1662V6.73459C25.9236 7.84931 26.17 8.69306 26.654 9.26584C27.138 9.83861 27.8399 10.125 28.7595 10.125C29.5032 10.125 30.1104 9.88489 30.5812 9.40462C31.0521 8.92436 31.2919 8.29429 31.3007 7.51444H29.545ZM32.1389 6.18604C32.1389 5.10214 32.3941 4.25179 32.9046 3.63495C33.415 3.01811 34.1212 2.70969 35.0233 2.70969C35.9341 2.70969 36.6447 3.01811 37.1552 3.63495C37.6658 4.25179 37.9207 5.10656 37.9207 6.19924V6.65527C37.9207 7.74356 37.6676 8.59391 37.1618 9.20636C36.6558 9.81878 35.9473 10.125 35.0365 10.125C34.1212 10.125 33.4084 9.81878 32.898 9.20636C32.3919 8.58953 32.1389 7.73475 32.1389 6.64204V6.18604ZM34.0134 6.65528C34.0134 7.93301 34.3544 8.5719 35.0365 8.5719C35.6657 8.5719 36.0045 8.03876 36.0529 6.97249L36.0595 6.18604C36.0595 5.53395 35.9693 5.05148 35.7889 4.73865C35.6085 4.42144 35.3533 4.26281 35.0233 4.26281C34.7064 4.26281 34.4578 4.42144 34.2774 4.73865C34.1014 5.05148 34.0134 5.53395 34.0134 6.18604V6.65528ZM41.0426 10.125C41.694 10.125 42.2134 9.86284 42.6004 9.33851L42.6532 9.99281H44.409V2.84187H42.528V8.01011C42.3386 8.38024 42.0308 8.56526 41.604 8.56526C41.1506 8.56526 40.9196 8.21719 40.9106 7.52104V2.84187H39.0427V7.4748C39.0427 8.33835 39.2122 8.99708 39.5512 9.4509C39.8899 9.9003 40.3871 10.125 41.0426 10.125ZM49.7059 4.6539C49.7059 4.6539 49.2551 4.54384 48.7718 4.57871C48.0536 4.57871 47.7904 5.19394 47.61 5.64337V9.99281H45.7358V2.84187H47.4979L47.5508 3.38954C47.8455 2.78592 48.2528 2.70969 48.7718 2.70969C48.9173 2.70969 49.593 2.70969 49.7059 2.84922V4.6539ZM56.9711 10.125C56.0119 10.125 55.2638 9.83861 54.7271 9.26584C54.1901 8.69306 53.922 7.87354 53.922 6.80726V6.23891C53.922 5.11095 54.1684 4.24076 54.6611 3.62835C55.1539 3.01591 55.86 2.70969 56.7799 2.70969C57.6772 2.70969 58.353 2.99829 58.806 3.57547C59.2594 4.14825 59.4904 4.9986 59.499 6.12656V7.0452H55.7831C55.8094 7.57391 55.926 7.96166 56.133 8.20837C56.3396 8.4507 56.6588 8.5719 57.09 8.5719C57.7148 8.5719 58.2364 8.35819 58.6541 7.9308L59.3869 9.06094C59.1581 9.37819 58.8259 9.63592 58.3901 9.83419C57.9548 10.0281 57.4815 10.125 56.9711 10.125ZM55.7962 5.73664H57.6641V5.56477C57.6555 5.13739 57.585 4.81358 57.453 4.59326C57.321 4.37295 57.0923 4.26281 56.7668 4.26281C56.4409 4.26281 56.2035 4.37959 56.0539 4.6131C55.9084 4.84661 55.8229 5.22113 55.7962 5.73664ZM63.5659 4.57871C64.0493 4.54384 64.5 4.6539 64.5 4.6539V2.84922C64.3875 2.70969 63.7114 2.70969 63.5659 2.70969C63.0469 2.70969 62.6396 2.78592 62.3449 3.38954L62.292 2.84187H60.5299V9.99281H62.4045V5.64337C62.5849 5.19394 62.8478 4.57871 63.5659 4.57871ZM21.7654 6.64856H24.7677V5.08886H21.7654V6.64856Z" fill="#2C40C0"/>
</svg>
